:SAMPLES-PER-SECOND 30
:FULLY-SPECIFIED
:DEGREES
283
root  12.18735552 41.81399909 -3.045622195 -0.7691019773 -33.14770126 -11.96210098
lfemur  -23.74809456 -5.850689888 7.050147533
ltibia  -1.491570742e-006 -8.364404493e-007 48.19308853
lfoot  5.521815751e-007 11.73260784 1.445420623
ltoes  -4.250644065 -19.5611806 -102.515957
rfemur  -11.5884943 15.62709999 10.97299862
rtibia  -8.727266732e-007 2.533748784e-007 40.20678711
rfoot  -2.316020982e-006 0.7022947669 -23.04149818
rtoes  5.373923086 19.29304026 -105.8922705
lowerback  8.541810036 3.493860006 -3.807009935
upperback  4.103439808 4.180830002 -5.152709961
thorax  -0.4007970095 2.044709921 -3.570460081
rclavicle  0 -9.442270133e-015 7.951389973e-016
rhumerus  -15.14480019 2.860290051 -73.75610352
rradius  -7.782816926e-012 0.001642658608 130.4060059
rwrist  0.002739921212 0.003270594636 -3.217550039
rthumb  -92.93752616 -24.25625642 -97.11982154
rhand  -7.920061211e-032 -33.2840004 9.303460121
rfingers  -90 -7.125020027 -90
lclavicle  0 -9.442270133e-015 7.951389973e-016
lhumerus  15.19589996 -9.815670013 62.87110138
lradius  1.032089952e-011 0.005718162749 141.8079987
lwrist  1.816137865e-011 1.409039812e-011 11.53559971
lthumb  89.89689403 5.08795885 91.16245106
lhand  -1.496451383e-031 -27.76390076 20.11240005
lfingers  90 7.125020027 -90
lowerneck  4.810080051 7.983880043 -4.257269859
upperneck  18.08429909 8.785110474 13.96189976
head  3.692199945 4.623400211 5.109469891
284
root  12.30577784 41.76377724 -3.091288927 -0.8301590085 -35.10509872 -12.25450039
lfemur  -23.08179665 -5.593360424 7.018848896
ltibia  -1.491570742e-006 -8.364404493e-007 48.74899292
lfoot  5.521815751e-007 11.29070377 0.7810184956
ltoes  -4.250644065 -19.5611806 -102.515957
rfemur  -12.26409435 15.45110035 11.26299858
rtibia  -8.727266732e-007 2.533748784e-007 41.96448898
rfoot  -2.316020982e-006 1.463175297 -19.86019897
rtoes  5.373923086 19.29304026 -105.8922705
lowerback  8.847949982 3.44611001 -3.157919884
upperback  4.149400234 4.149730206 -5.004489899
thorax  -0.4890730083 2.03666997 -3.792809963
rclavicle  0 -9.442270133e-015 7.951389973e-016
rhumerus  -14.36769962 2.636480093 -73.09790039
rradius  -7.782817793e-012 0.001642658608 131.5509949
rwrist  0.002739921212 0.003270594636 -3.393517733
rthumb  -92.93752616 -24.25625642 -97.11982154
rhand  -7.920061211e-032 -33.2840004 9.303460121
rfingers  -90 -7.125020027 -90
lclavicle  0 -9.442270133e-015 7.951389973e-016
lhumerus  15.58399963 -9.698539734 62.44350052
lradius  1.032090212e-011 0.005718162749 141.6399994
lwrist  1.816137865e-011 1.409039812e-011 10.77880001
lthumb  89.89689403 5.08795885 91.16245106
lhand  -1.496451383e-031 -27.76390076 20.11240005
lfingers  90 7.125020027 -90
lowerneck  4.816040039 8.189310074 -4.004220009
upperneck  18.24069977 9.106679916 13.36730003
head  3.76238966 4.76541996 4.889500141
285
root  12.45404416 41.6731106 -3.149955479 -0.8131101131 -36.83160019 -11.79730129
lfemur  -23.16539574 -5.380320072 6.265889168
ltibia  -1.491570742e-006 -8.364404493e-007 49.25959396
lfoot  5.521815751e-007 11.19020367 0.2280793339
ltoes  -4.250644065 -19.5611806 -102.515957
rfemur  -13.44039345 14.92179966 10.76199913
rtibia  -8.727266732e-007 2.533748784e-007 44.05498505
rfoot  -2.316020982e-006 2.326987028 -16.38839722
rtoes  5.373923086 19.29304026 -105.8922705
lowerback  8.8020401 3.374419928 -3.048949957
upperback  4.006030083 4.054409981 -5.09375
thorax  -0.6029440165 1.990399957 -3.940479994
rclavicle  0 -9.442270133e-015 7.951389973e-016
rhumerus  -13.64869976 2.483840227 -72.61840057
rradius  -7.782816926e-012 0.001642658608 132.598999
rwrist  0.002739921212 0.003270594636 -3.256245613
rthumb  -92.93752616 -24.25625642 -97.11982154
rhand  -7.920061211e-032 -33.2840004 9.303460121
rfingers  -90 -7.125020027 -90
lclavicle  0 -9.442270133e-015 7.951389973e-016
lhumerus  15.81050205 -9.679550171 62.11999893
lradius  1.032090299e-011 0.005718162749 141.6829987
lwrist  1.816137865e-011 1.409039812e-011 10.71959972
lthumb  89.89689403 5.08795885 91.16245106
lhand  -1.496451383e-031 -27.76390076 20.11240005
lfingers  90 7.125020027 -90
lowerneck  5.025720119 8.323459625 -3.584579945
upperneck  18.26609993 9.343681335 12.74009991
head  3.780519962 4.866179943 4.621079922
286
root  12.55495567 41.57155555 -3.160955399 -1.041949987 -38.62129974 -11.95230103
lfemur  -22.45259857 -5.11648035 6.016308784
ltibia  -1.491570742e-006 -8.364404493e-007 49.51989746
lfoot  5.521815751e-007 11.30630302 -0.8167515397
ltoes  -4.250644065 -19.5611806 -102.515957
rfemur  -13.76009655 14.79100037 11.1639986
rtibia  -8.727266732e-007 2.533748784e-007 46.39169312
rfoot  -2.316020982e-006 2.769983768 -13.03329945
rtoes  5.373923086 19.29304026 -105.8922705
lowerback  8.951459885 3.365080118 -2.522000074
upperback  4.153160095 4.08190012 -5.002289772
thorax  -0.5013570189 2.00970006 -4.145909786
rclavicle  0 -9.442270133e-015 7.951389973e-016
rhumerus  -12.65250015 2.424479008 -72.24810028
rradius  -7.782816926e-012 0.001642658608 133.5240021
rwrist  0.002739921212 0.003270594636 -2.918492079
rthumb  -92.93752616 -24.25625642 -97.11982154
rhand  -7.920061211e-032 -33.2840004 9.303460121
rfingers  -90 -7.125020027 -90
lclavicle  0 -9.442270133e-015 7.951389973e-016
lhumerus  15.92549896 -9.693699837 61.95930099
lradius  1.032090038e-011 0.005718162749 141.4190063
lwrist  1.816137865e-011 1.409039812e-011 9.970700264
lthumb  89.89689403 5.08795885 91.16245106
lhand  -1.496451383e-031 -27.76390076 20.11240005
lfingers  90 7.125020027 -90
lowerneck  4.861559868 8.407930374 -3.087409973
upperneck  18.45840073 9.503909111 12.16219997
head  3.918849945 4.951330185 4.381810188
